<svg width="32" height="46" viewBox="0 0 32 46" fill="none" xmlns="http://www.w3.org/2000/svg">
<g filter="url(#filter0_d_1241_4572)">
<path d="M5.93826 1.94249C5.64083 2.2393 5.40487 2.59186 5.24387 2.97998C5.08287 3.36811 5 3.78417 5 4.20436C5 4.62455 5.08287 5.04062 5.24387 5.42874C5.40487 5.81686 5.64083 6.16942 5.93826 6.46624L18.3866 18.9146L5.93826 31.3629C5.33837 31.9628 5.00136 32.7764 5.00136 33.6248C5.00136 34.4731 5.33837 35.2868 5.93826 35.8867C6.53814 36.4865 7.35177 36.8236 8.20013 36.8236C9.0485 36.8236 9.86212 36.4865 10.462 35.8867L25.1883 21.1604C25.4857 20.8636 25.7216 20.511 25.8826 20.1229C26.0436 19.7348 26.1265 19.3187 26.1265 18.8985C26.1265 18.4783 26.0436 18.0623 25.8826 17.6742C25.7216 17.286 25.4857 16.9335 25.1883 16.6367L10.462 1.9104C9.24284 0.691237 7.18951 0.691237 5.93826 1.94249Z" fill="#7C4CC6"/>
<path d="M5.72266 1.45801C7.17507 0.146807 9.44201 0.183408 10.8154 1.55664L25.542 16.2832C25.8857 16.6263 26.1586 17.0338 26.3447 17.4824C26.5309 17.9312 26.6269 18.4125 26.627 18.8984C26.627 19.3843 26.5309 19.8656 26.3447 20.3145C26.1586 20.763 25.8847 21.1696 25.541 21.5127L25.542 21.5137L10.8154 36.2402C10.1218 36.9338 9.18111 37.3232 8.2002 37.3232C7.21929 37.3232 6.2786 36.9338 5.58496 36.2402C4.89136 35.5466 4.50104 34.6059 4.50098 33.625C4.50098 32.6441 4.89136 31.7034 5.58496 31.0098L17.6787 18.9141L5.58496 6.81934C5.24122 6.47617 4.96833 6.06877 4.78223 5.62012C4.59606 5.17129 4.5 4.69 4.5 4.2041C4.50003 3.71825 4.59607 3.23686 4.78223 2.78809C4.96838 2.33946 5.24118 1.932 5.58496 1.58887L5.72266 1.45801Z" stroke="#7C4CC6"/>
</g>
<defs>
<filter id="filter0_d_1241_4572" x="0" y="0" width="31.127" height="45.8236" filterUnits="userSpaceOnUse" color-interpolation-filters="sRGB">
<feFlood flood-opacity="0" result="BackgroundImageFix"/>
<feColorMatrix in="SourceAlpha" type="matrix" values="0 0 0 0 0 0 0 0 0 0 0 0 0 0 0 0 0 0 127 0" result="hardAlpha"/>
<feOffset dy="4"/>
<feGaussianBlur stdDeviation="2"/>
<feComposite in2="hardAlpha" operator="out"/>
<feColorMatrix type="matrix" values="0 0 0 0 0 0 0 0 0 0 0 0 0 0 0 0 0 0 0.25 0"/>
<feBlend mode="normal" in2="BackgroundImageFix" result="effect1_dropShadow_1241_4572"/>
<feBlend mode="normal" in="SourceGraphic" in2="effect1_dropShadow_1241_4572" result="shape"/>
</filter>
</defs>
</svg>
