<svg width="147" height="147" viewBox="0 0 147 147" fill="none" xmlns="http://www.w3.org/2000/svg">
<g clip-path="url(#clip0_1679_4689)">
<path d="M101.062 64.3125C101.062 79.5638 88.7513 91.875 73.5 91.875C58.2488 91.875 45.9375 79.5638 45.9375 64.3125C45.9375 49.0613 58.2488 36.75 73.5 36.75C88.7513 36.75 101.062 49.0613 101.062 64.3125Z" fill="#7C4CC6"/>
<path d="M101.062 64.3125C101.062 79.5638 88.7513 91.875 73.5 91.875C58.2488 91.875 45.9375 79.5638 45.9375 64.3125C45.9375 49.0613 58.2488 36.75 73.5 36.75C88.7513 36.75 101.062 49.0613 101.062 64.3125Z" fill="url(#paint0_linear_1679_4689)" fill-opacity="0.5"/>
<path fill-rule="evenodd" clip-rule="evenodd" d="M147 73.5C147 114.109 114.109 147 73.5 147C32.8913 147 0 114.109 0 73.5C0 32.8913 32.8913 0 73.5 0C114.109 0 147 32.8913 147 73.5ZM36.75 126.328C38.22 123.884 52.4606 101.062 73.4081 101.062C94.2637 101.062 108.596 123.939 110.066 126.328C118.609 120.42 125.59 112.526 130.407 103.324C135.224 94.1215 137.734 83.8868 137.721 73.5C137.721 37.9444 108.964 9.1875 73.4081 9.1875C37.8525 9.1875 9.09562 37.9444 9.09562 73.5C9.09562 95.3662 20.0287 114.752 36.75 126.328Z" fill="#7C4CC6"/>
<path fill-rule="evenodd" clip-rule="evenodd" d="M147 73.5C147 114.109 114.109 147 73.5 147C32.8913 147 0 114.109 0 73.5C0 32.8913 32.8913 0 73.5 0C114.109 0 147 32.8913 147 73.5ZM36.75 126.328C38.22 123.884 52.4606 101.062 73.4081 101.062C94.2637 101.062 108.596 123.939 110.066 126.328C118.609 120.42 125.59 112.526 130.407 103.324C135.224 94.1215 137.734 83.8868 137.721 73.5C137.721 37.9444 108.964 9.1875 73.4081 9.1875C37.8525 9.1875 9.09562 37.9444 9.09562 73.5C9.09562 95.3662 20.0287 114.752 36.75 126.328Z" fill="url(#paint1_linear_1679_4689)" fill-opacity="0.5"/>
</g>
<defs>
<linearGradient id="paint0_linear_1679_4689" x1="45.9375" y1="64.3125" x2="101.062" y2="64.3125" gradientUnits="userSpaceOnUse">
<stop stop-color="#7C4CC6"/>
<stop offset="1" stop-color="#5300F9"/>
</linearGradient>
<linearGradient id="paint1_linear_1679_4689" x1="0" y1="73.5" x2="147" y2="73.5" gradientUnits="userSpaceOnUse">
<stop stop-color="#7C4CC6"/>
<stop offset="1" stop-color="#5300F9"/>
</linearGradient>
<clipPath id="clip0_1679_4689">
<rect width="147" height="147" fill="white"/>
</clipPath>
</defs>
</svg>
