<svg width="24" height="26" viewBox="0 0 24 26" fill="none" xmlns="http://www.w3.org/2000/svg">
<path d="M15.25 1.25C15.8688 1.25013 16.4622 1.49605 16.8997 1.93367L21.5663 6.60033C22.0039 7.03782 22.2499 7.63121 22.25 8.25V16.4167C22.25 17.0355 22.0042 17.629 21.5666 18.0666C21.129 18.5042 20.5355 18.75 19.9167 18.75H10.5833C9.96449 18.75 9.371 18.5042 8.93342 18.0666C8.49583 17.629 8.25 17.0355 8.25 16.4167V3.58333C8.25 2.96449 8.49583 2.371 8.93342 1.93342C9.371 1.49583 9.96449 1.25 10.5833 1.25H15.25Z" stroke="white" stroke-width="2.5" stroke-linecap="round" stroke-linejoin="round"/>
<path d="M15.25 1.25V5.91667C15.25 6.53551 15.4958 7.129 15.9334 7.56658C16.371 8.00417 16.9645 8.25 17.5833 8.25H22.25M3.58333 7.08333C2.96449 7.08333 2.371 7.32917 1.93342 7.76675C1.49583 8.20434 1.25 8.79783 1.25 9.41667V22.25C1.25 22.8688 1.49583 23.4623 1.93342 23.8999C2.371 24.3375 2.96449 24.5833 3.58333 24.5833H12.9167C13.3262 24.5833 13.7286 24.4755 14.0833 24.2707C14.438 24.0659 14.7325 23.7714 14.9373 23.4167" stroke="white" stroke-width="2.5" stroke-linecap="round" stroke-linejoin="round"/>
</svg>
